<svg width="21" height="21" viewBox="0 0 21 21" fill="none" xmlns="http://www.w3.org/2000/svg">
<path fill-rule="evenodd" clip-rule="evenodd" d="M12.8594 7.35481L9.55842 11.6895L8.13388 9.86977C7.83729 9.48942 7.28771 9.42313 6.90912 9.7206C6.52965 10.0172 6.46248 10.5659 6.75995 10.9445L8.88061 13.6549C9.04635 13.866 9.29933 13.989 9.56801 13.989H9.57412C9.84367 13.9881 10.0984 13.8607 10.2615 13.6453L14.2472 8.41121C14.5395 8.02738 14.4653 7.4813 14.0815 7.18906C13.6968 6.89683 13.1507 6.97185 12.8594 7.35481ZM10.5001 17.4787C6.65219 17.4787 3.52136 14.3479 3.52136 10.5C3.52136 6.65212 6.65219 3.52129 10.5001 3.52129C14.348 3.52129 17.4788 6.65212 17.4788 10.5C17.4788 14.3479 14.348 17.4787 10.5001 17.4787ZM10.5 1.77661C5.68208 1.77661 1.77661 5.68295 1.77661 10.5C1.77661 15.3171 5.68208 19.2234 10.5 19.2234C15.3179 19.2234 19.2234 15.3171 19.2234 10.5C19.2234 5.68295 15.3179 1.77661 10.5 1.77661Z" fill="#2188CC"/>
</svg>
