<svg width="23" height="21" viewBox="0 0 23 21" fill="none" xmlns="http://www.w3.org/2000/svg">
<path fill-rule="evenodd" clip-rule="evenodd" d="M15.1006 9.62767H12.4001V7.01065C12.4001 6.52824 11.9968 6.13831 11.4999 6.13831C11.003 6.13831 10.5997 6.52824 10.5997 7.01065V10.5C10.5997 10.9824 11.003 11.3723 11.4999 11.3723H15.1006C15.5984 11.3723 16.0008 10.9824 16.0008 10.5C16.0008 10.0176 15.5984 9.62767 15.1006 9.62767ZM11.4998 17.4787C7.52915 17.4787 4.2984 14.3479 4.2984 10.5C4.2984 6.65212 7.52915 3.52129 11.4998 3.52129C15.4705 3.52129 18.7013 6.65212 18.7013 10.5C18.7013 14.3479 15.4705 17.4787 11.4998 17.4787ZM11.4999 1.77661C6.53626 1.77661 2.49805 5.68993 2.49805 10.5C2.49805 15.3101 6.53626 19.2234 11.4999 19.2234C16.4635 19.2234 20.5017 15.3101 20.5017 10.5C20.5017 5.68993 16.4635 1.77661 11.4999 1.77661Z" fill="#2188CC"/>
</svg>
