<svg width="21" height="21" viewBox="0 0 21 21" fill="none" xmlns="http://www.w3.org/2000/svg">
<g clip-path="url(#clip0_116_438)">
<path d="M17.4787 1.77661C17.9602 1.77661 18.351 2.16742 18.351 2.64895V5.92633L16.6064 7.67101V3.52129H4.39361V17.4787H16.6064V15.0728L18.351 13.3281V18.3511C18.351 18.8326 17.9602 19.2234 17.4787 19.2234H3.52127C3.03973 19.2234 2.64893 18.8326 2.64893 18.3511V2.64895C2.64893 2.16742 3.03973 1.77661 3.52127 1.77661H17.4787ZM19.0297 7.7155L20.2632 8.94899L13.4782 15.7341L12.2429 15.7323L12.2447 14.5006L19.0297 7.7155V7.7155ZM11.3723 10.5V12.2447H7.01063V10.5H11.3723ZM13.9893 7.01065V8.75533H7.01063V7.01065H13.9893Z" fill="#2188CC"/>
</g>
<defs>
<clipPath id="clip0_116_438">
<rect width="20.9362" height="20.9362" fill="white" transform="translate(0.0319824 0.0319214)"/>
</clipPath>
</defs>
</svg>
