<svg width="17" height="17" viewBox="0 0 17 17" fill="none" xmlns="http://www.w3.org/2000/svg">
<g clip-path="url(#clip0_116_431)">
<path d="M3.89751 3.98303L6.2175 12.1023L8.20644 8.12446L11.8945 6.64912L3.89751 3.98303ZM2.54582 2.15373L14.8497 6.2546C14.9134 6.27571 14.9691 6.31589 15.0092 6.36969C15.0492 6.42349 15.0718 6.48831 15.0738 6.55537C15.0758 6.62242 15.0571 6.68848 15.0203 6.74457C14.9835 6.80066 14.9304 6.84408 14.8681 6.86895L9.15445 9.15426L6.25937 14.9444C6.22991 15.0034 6.18333 15.0521 6.12573 15.0841C6.06812 15.1161 6.00219 15.13 5.93656 15.1239C5.87093 15.1179 5.80866 15.0921 5.75793 15.05C5.70719 15.0079 5.67035 14.9515 5.65222 14.8882L2.12775 2.55348C2.11143 2.49618 2.11106 2.4355 2.1267 2.37801C2.14233 2.32051 2.17337 2.26838 2.21647 2.22723C2.25957 2.18609 2.31308 2.1575 2.37124 2.14454C2.4294 2.13159 2.48999 2.13477 2.54648 2.15373H2.54582Z" fill="#2188CC"/>
</g>
<defs>
<clipPath id="clip0_116_431">
<rect width="15.7021" height="15.7021" fill="white" transform="translate(0.64917 0.648926)"/>
</clipPath>
</defs>
</svg>
