<svg width="17" height="17" viewBox="0 0 17 17" fill="none" xmlns="http://www.w3.org/2000/svg">
<g clip-path="url(#clip0_116_464)">
<path d="M9.80866 9.97338V11.3408C9.21651 11.1314 8.58277 11.0672 7.96066 11.1535C7.33855 11.2398 6.74623 11.4742 6.23344 11.8368C5.72066 12.1995 5.30238 12.6799 5.01373 13.2377C4.72509 13.7955 4.5745 14.4145 4.57462 15.0425L3.26611 15.0419C3.26591 14.243 3.4486 13.4546 3.80018 12.7372C4.15176 12.0198 4.66291 11.3924 5.29445 10.9031C5.92599 10.4138 6.66116 10.0755 7.44363 9.91426C8.22611 9.753 9.03511 9.773 9.80866 9.97273V9.97338ZM8.50015 9.15425C6.3313 9.15425 4.57462 7.39758 4.57462 5.22872C4.57462 3.05987 6.3313 1.30319 8.50015 1.30319C10.669 1.30319 12.4257 3.05987 12.4257 5.22872C12.4257 7.39758 10.669 9.15425 8.50015 9.15425ZM8.50015 7.84574C9.94606 7.84574 11.1172 6.67463 11.1172 5.22872C11.1172 3.78282 9.94606 2.6117 8.50015 2.6117C7.05425 2.6117 5.88313 3.78282 5.88313 5.22872C5.88313 6.67463 7.05425 7.84574 8.50015 7.84574ZM12.2903 13.6778L14.603 11.365L15.5288 12.2901L12.2903 15.5287L9.97681 13.2152L10.9026 12.2901L12.2896 13.6778H12.2903Z" fill="#2188CC"/>
</g>
<defs>
<clipPath id="clip0_116_464">
<rect width="15.7021" height="15.7021" fill="white" transform="translate(0.64917 0.648926)"/>
</clipPath>
</defs>
</svg>
